<!--?xml version="1.0" encoding="utf-8"?-->
<!-- Generator: Adobe Illustrator 18.1.1, SVG Export Plug-In . SVG Version: 6.00 Build 0)  -->

<svg version="1.1" id="_x31_0" xmlns="http://www.w3.org/2000/svg" xmlns:xlink="http://www.w3.org/1999/xlink" x="0px" y="0px" viewBox="0 0 512 512" style="width: 32px; height: 32px; opacity: 1;" xml:space="preserve">
<style type="text/css">
	.st0{fill:#374149;}
</style>
<g>
	<path class="st0" d="M441.494,161.67c0.899-9.804,0.391-19.764-1.543-29.678c-7.78-39.845-38.298-71.707-77.752-81.178
		c-6.033-1.446-12.16-2.364-18.287-2.739c-12.191-19.12-30.537-34.046-52.79-42.006C279.906,2.047,268.078,0,256,0
		c-12.094,0-23.922,2.055-35.156,6.103c-22.218,7.906-40.579,22.828-52.782,41.971c-6.131,0.375-12.258,1.293-18.295,2.743
		c-39.474,9.483-69.991,41.365-77.748,81.226c-1.93,9.905-2.43,19.858-1.532,29.654c-20.393,21.296-32.233,49.899-32.233,80.315
		c0,30.408,11.679,59.16,32.89,80.96c2.806,2.864,5.369,5.267,7.94,7.459c1.364,1.157,2.747,2.274,4.15,3.361
		c0.062,0.058,0.118,0.102,0.184,0.16c-0.004,0.039-0.004,0.082-0.008,0.125c-0.098,1.962-0.149,3.931-0.149,5.947
		c0,2.677,0.106,5.377,0.309,8.026c1.001,14.731,4.713,28.888,11.043,42.084c3.747,7.799,8.382,15.189,13.778,21.983
		c13.165,16.709,30.768,29.506,50.798,36.887c8.178,3.005,16.618,5.084,25.118,6.19c4.701,0.637,9.862,0.977,15.102,0.977
		c10.945,0,21.171-2.329,30.686-5.615c0.918-0.301,1.806-0.535,2.739-0.859l-0.418,38.895c0,14.254,12.668,25.356,27.302,23.121
		c0.094-0.016,0.187-0.039,0.282-0.054c1.211-0.2,2.41-0.309,3.646-0.7c9.773-3.094,15.923-12.836,15.923-23.086l-0.301-28.263
		l-0.051-9.933c10.242,3.778,21.394,6.494,33.378,6.494c4.826,0,9.839-0.316,14.895-0.942c5.83-0.762,11.492-1.934,17.006-3.509
		h0.301l0.094-0.031h0.742l7.444-2.77c18.994-7.065,35.801-19.002,48.758-34.606l3.545-3.559l1.359-2.743
		c3.998-5.514,7.538-11.445,10.562-17.697c6.439-13.356,10.187-27.67,11.156-42.588l0.012-0.188c0.183-2.485,0.273-5.01,0.273-7.514
		c0-2.043-0.05-4.075-0.156-6.099c1.41-1.094,2.802-2.223,4.17-3.388c2.598-2.177,5.22-4.618,7.998-7.455
		c21.315-21.91,32.995-50.662,32.995-81.07C473.746,211.565,461.898,182.95,441.494,161.67z M378.59,310.874
		c-0.05,0.015-0.102,0.039-0.152,0.054c4.001,8.898,6.178,18.725,6.178,29.095c0,1.602-0.066,3.201-0.191,4.771
		c0,0.031,0,0.031,0,0.062c-0.61,9.347-2.978,18.214-6.85,26.247c-2.337,4.834-5.185,9.413-8.514,13.574
		c-0.031,0.062-0.098,0.094-0.129,0.16c-8.066,10.179-18.854,18.119-31.241,22.726c-0.031,0-0.098,0.031-0.129,0.031
		c-4.931,1.825-10.117,3.138-15.494,3.842c-3.102,0.382-6.275,0.61-9.475,0.61c-11.809,0-24.082-5.811-33.949-10.918l-0.238-22.148
		l60.211-67.51l3.075-3.458c0.222-0.285,0.512-0.734,0.641-1.344c0.125-0.734,0.062-1.696-0.481-2.814
		c-0.962-1.922-4.388-5.634-7.206-5.634c-0.766,0-1.535,0.254-2.27,0.832l-3.681,3.201l-4.224,3.681l-26.387,23.07l-19.678,17.061
		v-38.243l20.937-23.465l2.368-2.657l12.195-13.669l27.786-31.174c0.512-0.673,1.184-2.114,0.16-4.162
		c-0.962-1.919-4.388-5.666-7.206-5.666c-0.766,0-1.535,0.254-2.27,0.833l-41.294,36.074l-1.63,1.411l-6.322,5.529l-4.724,4.002
		v-69.296c0-6.209-2.493-11.778-6.561-15.845c-4.033-4.064-9.667-6.561-15.845-6.561c-12.356,0-22.406,10.018-22.406,22.406v41.974
		l-0.106,27.43l-10.972-9.577l-1.63-1.442l-41.486-36.234c-0.574-0.449-1.313-0.703-2.078-0.703c-2.818,0-6.245,3.747-7.17,5.666
		c-1.024,1.985-0.45,3.422,0.285,4.384l27.595,30.951h0.031l12.195,13.704l2.368,2.657l20.968,23.496v23.21l-0.106,15.075
		l-45.988-40.239l-4.227-3.681h-0.031l-3.842-3.361c-0.574-0.449-1.313-0.672-2.078-0.672c-2.818,0-6.245,3.712-7.206,5.634
		c-0.543,1.118-0.606,2.048-0.446,2.814c0.16,0.61,0.446,1.122,0.766,1.571l2.915,3.262l60.242,67.542l-0.238,22.066
		c-9.862,5.099-22.148,10.938-33.949,10.938c-3.2,0-6.338-0.192-9.413-0.61c-5.408-0.704-10.594-2.017-15.556-3.842
		c-12.516-4.606-23.398-12.641-31.494-22.918c-3.334-4.193-6.213-8.772-8.55-13.637c-3.842-8.003-6.21-16.838-6.819-26.185
		c-0.125-1.598-0.191-3.2-0.191-4.834c0-1.282,0.035-2.528,0.098-3.806c0.062-1.313,0.16-2.594,0.321-3.876
		c0.094-0.962,0.222-1.954,0.382-2.911c0.063-0.61,0.161-1.219,0.29-1.794c0.191-1.215,0.414-2.43,0.703-3.618
		c0.098-0.481,0.222-0.962,0.352-1.438c0.16-0.738,0.351-1.504,0.61-2.242c0.254-0.958,0.542-1.887,0.832-2.814
		c0.352-1.059,0.734-2.149,1.153-3.204c0.191-0.481,0.351-0.926,0.543-1.376c0.211-0.558,0.461-1.121,0.718-1.68
		c0.043-0.05,0.055-0.137,0.098-0.183c-0.004-0.004-0.012-0.004-0.012-0.004c0.019-0.051,0.035-0.102,0.058-0.149
		c-9.605-2.884-18.373-7.749-25.833-14.086c-1.726-1.474-3.36-3.04-4.927-4.638c-12.614-12.965-20.393-30.666-20.393-50.192
		c0-26.93,14.852-50.364,36.758-62.712c0.363-0.203,0.684-0.461,1.051-0.656v-0.004c0.019-0.012,0.039-0.027,0.058-0.039h0.035
		c0.016-0.012,0.035-0.019,0.051-0.027c-0.551-1.126-1.043-2.282-1.524-3.446c-0.262-0.63-0.504-1.258-0.742-1.891
		c-0.883-2.337-1.63-4.736-2.22-7.198c-0.164-0.688-0.305-1.376-0.441-2.063c-0.497-2.442-0.848-4.935-1.036-7.479
		c-0.05-0.707-0.078-1.422-0.102-2.134c-0.094-2.586-0.031-5.213,0.223-7.882c0.058-0.625,0.133-1.246,0.21-1.871
		c0.172-1.372,0.36-2.747,0.63-4.138c4.427-22.746,22.21-41.338,44.741-46.75c4.873-1.172,9.659-1.719,14.317-1.719
		c7.124,0,13.915,1.333,20.253,3.61c0.52,0.199,1.059,0.352,1.575,0.57c0-0.011,0.004-0.019,0.004-0.031
		c0.05,0.02,0.105,0.035,0.152,0.051c3.048-22.566,18.58-41.17,39.431-48.59c1.125-0.402,2.282-0.734,3.434-1.07
		c0.946-0.278,1.903-0.527,2.864-0.758c2.364-0.562,4.783-0.984,7.253-1.254c0.946-0.102,1.895-0.184,2.848-0.242
		c1.258-0.078,2.517-0.164,3.798-0.164c1.286,0,2.548,0.086,3.814,0.164c0.946,0.058,1.891,0.137,2.833,0.242
		c2.486,0.27,4.92,0.695,7.307,1.258c0.958,0.227,1.903,0.477,2.849,0.75c1.161,0.336,2.329,0.668,3.462,1.074
		c19.819,7.093,34.664,24.34,38.677,45.422c0.18,1.016,0.469,1.997,0.598,3.028c0.008-0.004,0.016-0.008,0.028-0.012
		c0.004,0.055,0.023,0.106,0.031,0.161c6.822-2.685,14.223-4.209,21.995-4.209c4.654,0,9.437,0.547,14.306,1.715
		c22.526,5.408,40.306,23.989,44.745,46.726c0.27,1.387,0.457,2.758,0.629,4.126c0.082,0.633,0.157,1.266,0.215,1.895
		c0.254,2.661,0.321,5.279,0.226,7.862c-0.027,0.723-0.05,1.442-0.106,2.161c-0.175,2.454-0.515,4.858-0.984,7.218
		c-0.165,0.844-0.34,1.688-0.543,2.524c-0.501,2.048-1.11,4.044-1.81,6.002c-0.488,1.344-1,2.684-1.586,3.997
		c-0.344,0.782-0.664,1.571-1.035,2.333c0.023,0.012,0.05,0.024,0.074,0.039c22.566,12.129,37.898,35.977,37.898,63.411
		c0,19.526-7.78,37.227-20.389,50.192c-1.571,1.598-3.201,3.165-4.932,4.607c-7.202,6.154-15.65,10.859-24.894,13.77
		c-0.282,0.082-0.543,0.203-0.825,0.282C378.586,310.866,378.586,310.87,378.59,310.874z" style="fill: rgb(255, 255, 255);"></path>
</g>
</svg>
